<svg xmlns="http://www.w3.org/2000/svg" viewBox="0 0 200 200" aria-hidden="true">
  <defs>
    <pattern id="lp" x="0" y="0" width="200" height="200" patternUnits="userSpaceOnUse">
      <g fill="none" stroke="#84cc16" stroke-width="1" opacity="0.15">
        <!-- organic leaf veins arranged in a sparse pattern -->
        <path d="M30 40 q-10 -22 14 -32 q22 -2 22 22 q-8 18 -36 10 Z"/>
        <path d="M30 40 l16 -22"/>
        <path d="M140 80 q-12 -26 16 -36 q24 -2 22 24 q-8 20 -38 12 Z"/>
        <path d="M140 80 l18 -24"/>
        <path d="M70 140 q-10 -22 14 -32 q22 -2 22 22 q-8 18 -36 10 Z"/>
        <path d="M70 140 l16 -22"/>
        <path d="M160 170 q-8 -18 12 -28 q18 -2 18 18 q-6 14 -30 10 Z"/>
        <path d="M160 170 l14 -20"/>
      </g>
    </pattern>
  </defs>
  <rect width="200" height="200" fill="url(#lp)"/>
</svg>
